<svg width="84" height="29" viewBox="0 0 84 29" fill="none" xmlns="http://www.w3.org/2000/svg">
<rect width="84" height="29" rx="4" fill="#56EB77"/>
<path d="M9.134 9.22H14.678V10.718H9.134V9.22ZM10.73 12.244H12.578V15.492H10.73V12.244ZM13.95 9.22H15.784V10.032C15.784 10.942 15.784 12.23 15.476 13.84L13.67 13.644C13.95 12.048 13.95 10.928 13.95 10.032V9.22ZM17.044 8.282H18.92V17.984H17.044V8.282ZM18.178 12.23H20.46V13.756H18.178V12.23ZM10.268 19.538H19.326V21.022H10.268V19.538ZM10.268 17.116H12.13V20H10.268V17.116ZM8.546 16.248L8.378 14.778C10.618 14.778 13.74 14.736 16.344 14.372L16.456 15.688C13.782 16.192 10.772 16.248 8.546 16.248ZM30.3709 8.268H32.2329V21.274H30.3709V8.268ZM22.1389 16.738H23.2869C25.5829 16.738 27.4169 16.654 29.4749 16.304L29.6569 17.802C27.5569 18.18 25.6529 18.25 23.2869 18.25H22.1389V16.738ZM22.1249 9.374H28.2429V14.386H24.0289V17.298H22.1389V12.916H26.3389V10.858H22.1249V9.374ZM37.2298 10.326H38.6998V11.782C38.6998 14.708 37.4678 17.69 35.0878 18.81L34.0378 17.34C36.1798 16.332 37.2298 13.91 37.2298 11.782V10.326ZM37.6218 10.326H39.0918V11.782C39.0918 13.742 40.0998 16.038 42.2278 17.018L41.2058 18.488C38.8258 17.382 37.6218 14.54 37.6218 11.782V10.326ZM34.5418 9.528H41.6538V11.054H34.5418V9.528ZM42.6058 8.282H44.4818V21.246H42.6058V8.282ZM44.0618 13.224H46.3578V14.764H44.0618V13.224ZM55.435 11.698H58.067V13.182H55.435V11.698ZM55.365 14.932H58.011V16.416H55.365V14.932ZM59.831 8.282H61.609V21.246H59.831V8.282ZM57.157 8.562H58.893V20.672H57.157V8.562ZM54.231 9.808H56.023C56.023 13.49 54.917 16.43 51.305 18.558L50.255 17.256C53.181 15.478 54.231 13.322 54.231 10.186V9.808ZM50.997 9.808H54.861V11.292H50.997V9.808ZM70.3439 11.418H72.8079V12.93H70.3439V11.418ZM72.3039 8.282H74.1659V15.982H72.3039V8.282ZM69.7699 16.262C72.5139 16.262 74.2079 17.2 74.2079 18.768C74.2079 20.35 72.5139 21.26 69.7699 21.26C67.0259 21.26 65.3319 20.35 65.3319 18.768C65.3319 17.2 67.0259 16.262 69.7699 16.262ZM69.7699 17.676C68.0899 17.676 67.1939 18.026 67.1939 18.768C67.1939 19.496 68.0899 19.846 69.7699 19.846C71.4639 19.846 72.3599 19.496 72.3599 18.768C72.3599 18.026 71.4639 17.676 69.7699 17.676ZM66.3119 9.584H67.8239V10.396C67.8239 12.874 66.6759 15.142 64.1979 15.982L63.2459 14.512C65.3879 13.784 66.3119 12.062 66.3119 10.396V9.584ZM66.7039 9.584H68.2019V10.396C68.2019 11.922 69.0839 13.504 71.1279 14.19L70.2179 15.66C67.8099 14.862 66.7039 12.706 66.7039 10.396V9.584ZM63.7499 9.066H70.7219V10.55H63.7499V9.066Z" fill="#009F10"/>
</svg>
