<svg width="24" height="24" viewBox="0 0 24 24" fill="none" xmlns="http://www.w3.org/2000/svg">
<path d="M20.9963 19.571L19.5693 20.999L13.1273 14.557L14.5573 13.129L20.9963 19.571ZM13.1163 3.001C10.5363 3.001 7.95628 3.981 5.97628 5.951L5.96628 5.961C2.01628 9.911 2.01628 16.321 5.96628 20.271L20.2663 5.961C18.2963 3.991 15.7063 3.001 13.1163 3.001ZM6.13628 17.271C5.39628 16.031 4.99628 14.611 4.99628 13.121C4.99628 12.191 5.15628 11.301 5.45628 10.451C5.64628 12.361 6.34628 14.241 7.52628 15.891L6.13628 17.271ZM8.97628 14.431C7.62628 12.381 7.11628 9.931 7.59628 7.601C8.17628 7.481 8.75628 7.421 9.34628 7.421C11.1463 7.421 12.8963 7.971 14.4263 8.981L8.97628 14.431ZM10.4463 5.461C11.2963 5.161 12.1863 5.001 13.1163 5.001C14.6063 5.001 16.0263 5.401 17.2663 6.141L15.8763 7.531C14.2263 6.351 12.3563 5.651 10.4463 5.461Z" fill="#0066FF"/>
</svg>
