<svg width="400" height="77" viewBox="0 0 400 77" fill="none" xmlns="http://www.w3.org/2000/svg">
<path d="M14.3953 77C11.862 77 9.52865 76.3667 7.39531 75.1C5.32865 73.8333 3.66198 72.1667 2.39531 70.1C1.12865 67.9667 0.495313 65.6333 0.495313 63.1V57.6H13.6953V62.5C13.6953 62.8333 13.7953 63.1333 13.9953 63.4C14.262 63.6 14.562 63.7 14.8953 63.7H57.9953C58.3286 63.7 58.5953 63.6 58.7953 63.4C59.062 63.1333 59.1953 62.8333 59.1953 62.5V48.8C59.1953 48.4667 59.062 48.2 58.7953 48C58.5953 47.8 58.3286 47.7 57.9953 47.7H14.3953C11.862 47.7 9.52865 47.0667 7.39531 45.8C5.32865 44.5333 3.66198 42.8667 2.39531 40.8C1.12865 38.6667 0.495313 36.3 0.495313 33.7V18.9C0.495313 16.3667 1.12865 14.0667 2.39531 12C3.66198 9.86666 5.32865 8.16666 7.39531 6.9C9.52865 5.63333 11.862 5 14.3953 5H58.5953C61.1286 5 63.4286 5.63333 65.4953 6.9C67.6286 8.16666 69.3286 9.86666 70.5953 12C71.862 14.0667 72.4953 16.3667 72.4953 18.9V24.4H59.1953V19.5C59.1953 19.1667 59.062 18.9 58.7953 18.7C58.5953 18.4333 58.3286 18.3 57.9953 18.3H14.8953C14.562 18.3 14.262 18.4333 13.9953 18.7C13.7953 18.9 13.6953 19.1667 13.6953 19.5V33.2C13.6953 33.5333 13.7953 33.8 13.9953 34C14.262 34.2 14.562 34.3 14.8953 34.3H58.5953C61.1286 34.3 63.4286 34.9333 65.4953 36.2C67.6286 37.4667 69.3286 39.1667 70.5953 41.3C71.862 43.3667 72.4953 45.7 72.4953 48.3V63.1C72.4953 65.6333 71.862 67.9667 70.5953 70.1C69.3286 72.1667 67.6286 73.8333 65.4953 75.1C63.4286 76.3667 61.1286 77 58.5953 77H14.3953ZM93.7125 77C91.1792 77 88.8792 76.3667 86.8125 75.1C84.7458 73.8333 83.0792 72.1667 81.8125 70.1C80.5458 68.0333 79.9125 65.7333 79.9125 63.2V32.8C79.9125 30.2667 80.5458 27.9667 81.8125 25.9C83.0792 23.8333 84.7458 22.1667 86.8125 20.9C88.8792 19.6333 91.1792 19 93.7125 19H125.013C127.546 19 129.846 19.6333 131.913 20.9C134.046 22.1667 135.713 23.8333 136.913 25.9C138.179 27.9667 138.813 30.2667 138.813 32.8V54.6H93.0125V62.7C93.0125 63.0333 93.1125 63.3333 93.3125 63.6C93.5792 63.8 93.8792 63.9 94.2125 63.9H138.813V77H93.7125ZM93.0125 42.8H125.713V33.3C125.713 32.9667 125.579 32.7 125.312 32.5C125.113 32.2333 124.846 32.1 124.513 32.1H94.2125C93.8792 32.1 93.5792 32.2333 93.3125 32.5C93.1125 32.7 93.0125 32.9667 93.0125 33.3V42.8ZM158.584 77C156.05 77 153.75 76.3667 151.684 75.1C149.617 73.8333 147.95 72.1667 146.684 70.1C145.417 68.0333 144.784 65.7333 144.784 63.2V32.8C144.784 30.2667 145.417 27.9667 146.684 25.9C147.95 23.8333 149.617 22.1667 151.684 20.9C153.75 19.6333 156.05 19 158.584 19H189.884C192.417 19 194.717 19.6333 196.784 20.9C198.917 22.1667 200.584 23.8333 201.784 25.9C203.05 27.9667 203.684 30.2667 203.684 32.8V63.2C203.684 65.7333 203.05 68.0333 201.784 70.1C200.584 72.1667 198.95 73.8333 196.884 75.1C194.817 76.3667 192.484 77 189.884 77H158.584ZM159.084 63.9H189.384C189.717 63.9 189.984 63.8 190.184 63.6C190.45 63.3333 190.584 63.0333 190.584 62.7V33.3C190.584 32.9667 190.45 32.7 190.184 32.5C189.984 32.2333 189.717 32.1 189.384 32.1H159.084C158.75 32.1 158.45 32.2333 158.184 32.5C157.984 32.7 157.884 32.9667 157.884 33.3V62.7C157.884 63.0333 157.984 63.3333 158.184 63.6C158.45 63.8 158.75 63.9 159.084 63.9ZM211.322 77V-4.05312e-06H224.422V19H256.422C258.955 19 261.255 19.6333 263.322 20.9C265.389 22.1667 267.055 23.8333 268.322 25.9C269.589 27.9667 270.222 30.2667 270.222 32.8V77H257.122V33.3C257.122 32.9667 256.989 32.7 256.722 32.5C256.522 32.2333 256.255 32.1 255.922 32.1H225.622C225.289 32.1 224.989 32.2333 224.722 32.5C224.522 32.7 224.422 32.9667 224.422 33.3V77H211.322ZM288.816 77C286.283 77 283.95 76.3667 281.816 75.1C279.75 73.8333 278.083 72.1667 276.816 70.1C275.616 68.0333 275.016 65.7333 275.016 63.2V41.4H320.816V33.3C320.816 32.9667 320.683 32.7 320.416 32.5C320.216 32.2333 319.95 32.1 319.616 32.1H275.016V19H320.116C322.65 19 324.95 19.6333 327.016 20.9C329.15 22.1667 330.816 23.8333 332.016 25.9C333.283 27.9667 333.916 30.2667 333.916 32.8V77H288.816ZM289.316 63.9H320.816V53.2H288.116V62.7C288.116 63.0333 288.216 63.3333 288.416 63.6C288.683 63.8 288.983 63.9 289.316 63.9ZM340.576 77V19H385.676C388.209 19 390.509 19.6333 392.576 20.9C394.709 22.1667 396.376 23.8333 397.576 25.9C398.842 27.9667 399.476 30.2667 399.476 32.8V77H386.376V33.3C386.376 32.9667 386.242 32.7 385.976 32.5C385.776 32.2333 385.509 32.1 385.176 32.1H354.876C354.542 32.1 354.242 32.2333 353.976 32.5C353.776 32.7 353.676 32.9667 353.676 33.3V77H340.576Z" fill="white"/>
</svg>
