<svg width="42" height="29" viewBox="0 0 42 29" fill="none" xmlns="http://www.w3.org/2000/svg">
<rect width="42" height="29" rx="4" fill="#FFF4CD"/>
<path d="M11.794 9.528H12.746V11.796C12.746 14.596 11.234 17.326 9.232 18.39L8.518 17.466C10.352 16.542 11.794 14.106 11.794 11.796V9.528ZM12.004 9.528H12.942V11.796C12.942 14.022 14.356 16.332 16.148 17.228L15.434 18.152C13.474 17.102 12.004 14.512 12.004 11.796V9.528ZM17.254 8.436H18.43V21.092H17.254V8.436ZM18.15 13.56H20.502V14.54H18.15V13.56ZM27.5429 12.006H31.1829V12.958H27.5429V12.006ZM30.8189 8.45H31.9809V17.816H30.8189V8.45ZM23.8469 19.86H32.2889V20.812H23.8469V19.86ZM23.8469 16.906H25.0089V20.35H23.8469V16.906ZM22.1949 9.276H23.3429V11.516H26.7729V9.276H27.9069V15.66H22.1949V9.276ZM23.3429 12.426V14.708H26.7729V12.426H23.3429Z" fill="#FF8A00"/>
</svg>
